<svg xmlns="http://www.w3.org/2000/svg" xml:space="preserve" viewBox="0 0 256 256"  width="24">
  <path fill="currentColor" fill-rule="evenodd" stroke-miterlimit="10" stroke-width="0" d="M217.032 38.159c-23.66-23.689-55.127-36.738-88.65-36.752C59.307 1.407 3.09 57.62 3.062 126.716c-.009 22.086 5.76 43.645 16.728 62.651l-17.78 64.94 66.435-17.428c18.304 9.984 38.913 15.247 59.886 15.253h.051c.003 0-.003 0 0 0 69.067 0 125.29-56.22 125.318-125.318.014-33.484-13.008-64.967-36.668-88.655zM77.49 131.276c-1.565-2.09-12.785-16.978-12.785-32.39 0-15.413 8.09-22.99 10.959-26.122 2.869-3.133 6.263-3.917 8.351-3.917s4.178.02 6.002.11c1.922.098 4.505-.731 7.045 5.375 2.61 6.269 8.871 21.684 9.655 23.25.784 1.568 1.304 3.394.261 5.485-1.042 2.088-1.565 3.394-3.13 5.224-1.565 1.829-3.288 4.082-4.698 5.485-1.568 1.562-3.201 3.256-1.374 6.39 1.826 3.136 8.11 13.39 17.419 21.693 11.96 10.67 22.05 13.974 25.18 15.542 3.13 1.568 4.957 1.307 6.783-.784 1.827-2.09 7.83-9.144 9.917-12.277 2.088-3.133 4.176-2.61 7.045-1.568 2.871 1.045 18.265 8.621 21.395 10.186 3.13 1.568 5.218 2.352 6.002 3.659.784 1.307.784 7.576-1.826 14.89-2.61 7.315-15.121 13.991-21.137 14.888-5.395.806-12.22 1.143-19.724-1.243-4.546-1.441-10.38-3.369-17.851-6.595-31.408-13.563-51.92-45.19-53.489-47.28z"/>
</svg>